<?xml version="1.0" encoding="UTF-8"?><svg id="Capa_2" xmlns="http://www.w3.org/2000/svg" viewBox="0 0 539.01 110.09"><g id="Capa_1-2"><path d="M66.26,90.9c-10.77.56-19.64-8.61-17.45-18.9,3.06-14.38,14.69-23.94,28.67-26.95.41-3.75-1.19-7.1-3.81-8.5-13.69-7.31-20.74,14.91-38.17,29.02-6.74,5.46-16.25,5.7-22.41.61-6.71-5.55-8.8-15.48-3.98-23.21,9.72-15.58,29.2-17.54,26.5-29.18-.2-.87-2.99-1.23-3.85-.78C22.1,18.02,18.93,32.75.04,26.62l-.04-12.51C18.88,20.66,15.87,1.58,32.72.08c5.67-.51,10.95,1.4,13.96,5.55s3.58,9.81,1.53,14.94c-4.36,10.93-15.96,15.35-25.38,24.33-1.88,1.79-1.3,6.63.42,8.13,1.55,1.36,6.17,1.36,7.86-.63l14.16-16.77c3.99-4.73,8.21-9.24,13.47-12.49,9.3-5.76,20.93-3.26,26.96,5.91,2.94,4.48,4.28,9.31,5.62,14.94l7.74.49.08,12.63-7.85.5c-1.47,13.76-7.8,32.39-25.04,33.29ZM78.25,57.79c-9.27,1.21-20.84,16.68-14.24,19.55,7.36,3.2,14.87-12.53,14.24-19.55Z"/><path d="M179.25,88.01c-4.1.51-8.26.53-12.83.28l-.14-30.37-32.19.05-.19,30.51-12.76-.21.03-70.71,12.72-.16.24,28.65,32.13.03.21-28.65,12.75.09.04,70.49Z"/><path d="M311.95,84.87c5.49,8.51.93,18.43-7.79,22.05-13.58,5.63-40.91,4.67-40.32-10.09.17-4.33,3.81-7.92,7.65-10.36-2.79-1.92-5.58-4.41-5.84-6.95-.32-3.12,1.71-6.1,4.25-7.63l3.69-2.23c-5.1-3.61-7.98-8.24-7.76-14.04s3.56-11.19,9.45-14.07c13.93-6.79,24.22,4,24.88-11.53,2.71-.66,8.02-.72,11.48-.26,1,2.77.31,7.28-1.98,9.14-2.16,1.75-5.5,2.54-9.4,3.55,6.3,3.14,9.1,9.77,8.04,16.88-.89,6.02-5.78,11.16-12.8,12.89-10.42,2.56-16.46-1.11-17.85,3.39-.32,1.03,1.61,3.31,2.83,3.33l19.94.28c3.96.06,9.24,2.05,11.56,5.65ZM296.05,59.23c.76-3.61-.14-8.1-2.24-10.04-2.23-2.06-6.38-2.8-9.39-2.1-5.14,1.19-6.86,6.18-6.31,10.4.58,4.46,3.5,7.51,7.83,7.87s8.95-.55,10.12-6.13ZM302.02,92.7c-.35-1.7-3.36-3.94-5.37-3.9l-15.32.3c-2.83.06-5.38,2.84-5.58,5.47-.16,2.1,1.86,5.23,4.2,5.8,8.17,1.98,24.04,1.82,22.08-7.68Z"/><path d="M249.83,106.79c-13.96,5.86-40.3,4.56-40.59-9.21-.09-4.54,2.95-8.16,7.74-11.17-3.28-2.13-6.65-4.88-5.85-8.94s4.4-5.99,8.31-7.62c-5.3-3.37-8.5-8.3-8.21-14.3.27-5.65,3.29-10.85,8.99-13.77,14.55-7.44,24.31,4.25,25.53-12.19l10.91-.08c1.35,1.81.92,6.37-.7,8.42-1.7,2.16-5.05,3.06-9.4,4.33,4.67,4.08,8,9.32,7.43,14.97-.67,6.64-4.58,12.08-11.15,14.32-11.4,3.9-18.86-.97-19.88,4.34-.23,1.19,2.09,3.08,3.35,3.1l19.3.18c4.26.04,9.63,2.24,11.9,5.89,4.91,7.91,1.23,17.98-7.7,21.73ZM241.09,60.56c1.78-5.27.35-10.01-3.25-12.31s-8.65-2.05-11.77.9c-2.68,2.53-3.29,7.51-1.68,11.43,1.4,3.4,5.32,4.89,8.6,4.9s6.89-1.35,8.1-4.92ZM244.44,99.35c2.38-1.08,3.41-4.72,2.98-6.81-.36-1.73-3.5-3.82-5.69-3.77l-15.41.37c-2.52.06-5,3.07-5.14,5.36-.53,8.56,15.99,8.15,23.26,4.85Z"/><path d="M399.59,50.43l-19.25.16-.09,37.98-12.11-.06-.1-37.87-9.66-.45.22-9.51,9.27-.38.72-13.19c.25-4.58,4.09-9,8.39-10.25,5.08-1.48,9.69-1.07,14.96.5l-2.18,9.96c-3.46-.82-7.91-1.29-8.71,1.26-1.17,3.7-.91,7.27-.76,11.86l31.64.16.04,47.74-12.3.16-.09-38.06Z"/><path d="M526.35,83.27c-4.17,4.62-9.38,7.22-15.68,6.53-5.49-.59-11.33-3.46-14.78-8.91-5.88-9.27-5.93-21.92-.95-31.68,3.09-6.06,9.11-9.04,14.76-9.96,6.88-1.12,11.96,1.77,16.93,6.87l.21-28.68h12.15s.02,70.91.02,70.91l-11.49.24-1.18-5.32ZM524.67,74.04c3.31-6.42,3.21-13.6,0-19.61-2.16-4.06-6.53-5.57-11.01-5.1-3.19.34-7.14,2.86-8.45,6.78-3.02,9.02-1.28,22.93,9.47,23.81,3.83.31,7.93-1.91,9.98-5.89Z"/><path d="M455.65,72.05l9.42,4.89c-2.98,7.47-8.79,11.42-16.33,12.75-9.5,1.68-19.96-1.47-25.21-10.08-4.71-7.72-4.85-17.63-1.9-25.82,3.72-10.32,13-15.29,23.6-14.91,10,.36,18.14,6.03,20.07,16.24.75,3.96.84,8.33.74,12.55l-33.51.15c-.05,6.36,4.23,10.91,9.41,11.97,5.78,1.19,10.71-1.27,13.71-7.73ZM453.28,59.25c.1-8.44-5.12-11.97-11.45-11.12-4.75.64-10.04,6.01-8.26,11.21l19.71-.09Z"/><path d="M349.58,86.77c-10.71,6.25-32.34,4.48-35.04-10.73l11.03-3.41c2.18,6.5,7.05,9.33,13.82,8.15,2.03-.35,4.47-2.41,4.78-4.28.37-2.23-1.69-5.3-4.02-5.97l-14.17-4.06c-5.13-1.47-8.97-6.04-9.67-10.09-.98-5.67.69-11.04,5.54-13.98,11.4-6.9,29.83-3.83,34.27,8.86l-10.79,3.9c-2.67-6.58-9.96-8.94-15.51-5.77-1.1.63-2.07,3.75-1.56,4.85s2.43,3.05,3.68,3.39l13.19,3.59c5.75,1.57,10.15,5.6,10.93,10.69.85,5.58-.94,11.63-6.48,14.87Z"/><path d="M485.06,88.14c-3.95.34-7.79.32-12.34.14V17.64s12.3-.2,12.3-.2l.05,70.7Z"/><polygon points="201.91 88.28 189.57 88.24 189.57 41 201.88 40.79 201.91 88.28"/><path d="M405.71,34.06c-5.01-.05-8.01-3.53-8.01-7.35,0-4.19,3.07-7.45,7.54-7.71s8.18,2.54,8.65,6.77-2.57,8.35-8.17,8.29Z"/><path d="M196,34.08c-4.76.19-7.92-2.88-8.34-6.61-.47-4.21,2.31-7.74,6.94-8.39s8.55,2.23,9.15,6.49-2.42,8.29-7.75,8.51Z"/></g></svg>