<svg xmlns="http://www.w3.org/2000/svg" viewBox="0 0 1000 800" fill="none">
<g stroke="#5c83b5" stroke-opacity=".23" stroke-width=".7"><path d="M260.0 -70.0 L271.8 -43.3 L283.5 -16.5 L294.8 10.2 L305.5 36.9 L315.6 63.6 L324.8 90.2 L332.9 116.8 L339.9 143.3 L345.7 169.8 L350.2 196.2 L353.2 222.5 L354.8 248.7 L354.9 274.8 L353.5 300.9 L350.6 326.8 L346.4 352.6 L340.8 378.3 L333.9 403.9 L325.9 429.4 L316.9 454.7 L306.9 479.9 L296.3 504.9 L285.0 529.8 L273.4 554.6 L261.6 579.2 L249.7 603.6 L238.0 627.9 L226.7 652.1 L215.8 676.0 L205.7 699.8 L196.4 723.5 L188.1 747.0 L180.9 770.3 L175.0 793.5 L170.4 816.5 L167.1 839.3 L165.4 862.0 L165.1 884.5 L166.3 906.9 L168.9 929.1"/>
<path d="M305.2 -57.1 L316.8 -30.4 L328.0 -3.8 L338.6 22.8 L348.5 49.3 L357.5 75.8 L365.4 102.2 L372.2 128.5 L377.7 154.7 L381.9 180.8 L384.6 206.9 L385.9 232.8 L385.7 258.6 L384.0 284.3 L380.9 309.9 L376.4 335.4 L370.5 360.7 L363.4 385.9 L355.2 410.9 L345.9 435.8 L335.8 460.6 L325.1 485.2 L313.7 509.6 L302.1 533.9 L290.2 558.1 L278.4 582.0 L266.7 605.8 L255.5 629.5 L244.8 653.0 L234.8 676.3 L225.7 699.5 L217.6 722.5 L210.6 745.3 L204.9 768.0 L200.6 790.5 L197.7 812.9 L196.2 835.1 L196.2 857.2 L197.7 879.1 L200.6 900.9 L205.0 922.6"/>
<path d="M350.1 -44.7 L361.2 -18.2 L371.7 8.2 L381.4 34.5 L390.1 60.7 L397.9 86.8 L404.4 112.9 L409.7 138.8 L413.5 164.6 L416.0 190.3 L417.0 215.9 L416.5 241.4 L414.5 266.7 L411.1 291.9 L406.3 316.9 L400.2 341.8 L392.8 366.6 L384.4 391.2 L375.0 415.6 L364.7 439.9 L353.8 464.1 L342.4 488.0 L330.7 511.8 L318.8 535.5 L307.0 559.0 L295.4 582.3 L284.3 605.5 L273.7 628.5 L263.9 651.3 L255.0 674.0 L247.1 696.5 L240.4 718.9 L235.0 741.1 L230.9 763.2 L228.2 785.1 L227.1 806.9 L227.4 828.6 L229.1 850.1 L232.4 871.5 L237.0 892.7 L242.9 913.9"/>
<path d="M394.3 -33.3 L404.7 -7.2 L414.2 18.9 L422.8 44.8 L430.3 70.6 L436.6 96.3 L441.5 121.9 L445.1 147.4 L447.3 172.7 L448.0 197.9 L447.2 222.9 L444.9 247.8 L441.3 272.6 L436.2 297.2 L429.8 321.6 L422.2 345.9 L413.6 370.1 L404.0 394.0 L393.6 417.8 L382.6 441.5 L371.1 465.0 L359.3 488.3 L347.5 511.5 L335.7 534.5 L324.2 557.3 L313.1 580.0 L302.7 602.5 L293.0 624.9 L284.3 647.1 L276.7 669.2 L270.2 691.1 L265.0 712.9 L261.3 734.6 L258.9 756.1 L258.0 777.5 L258.6 798.7 L260.7 819.9 L264.2 841.0 L269.1 861.9 L275.3 882.7 L282.7 903.5"/>
<path d="M437.6 -23.4 L447.0 2.3 L455.4 27.9 L462.6 53.4 L468.7 78.7 L473.4 103.9 L476.7 128.9 L478.6 153.8 L479.0 178.6 L477.9 203.2 L475.3 227.6 L471.3 251.9 L466.0 276.1 L459.4 300.0 L451.6 323.8 L442.7 347.5 L433.0 371.0 L422.4 394.3 L411.3 417.5 L399.8 440.5 L388.0 463.3 L376.1 486.0 L364.3 508.5 L352.9 530.9 L342.0 553.1 L331.7 575.2 L322.2 597.1 L313.7 618.9 L306.3 640.6 L300.1 662.1 L295.2 683.5 L291.7 704.7 L289.6 725.9 L289.0 747.0 L289.9 767.9 L292.3 788.7 L296.0 809.5 L301.2 830.2 L307.7 850.8 L315.3 871.3 L324.0 891.8"/>
<path d="M479.8 -15.3 L487.9 9.9 L494.9 34.9 L500.7 59.8 L505.2 84.6 L508.2 109.2 L509.8 133.6 L509.9 157.9 L508.5 182.1 L505.6 206.0 L501.4 229.8 L495.8 253.5 L488.9 277.0 L480.9 300.3 L471.9 323.5 L461.9 346.5 L451.3 369.3 L440.0 392.0 L428.4 414.5 L416.6 436.9 L404.7 459.1 L393.0 481.2 L381.7 503.1 L370.8 524.9 L360.7 546.6 L351.4 568.1 L343.1 589.5 L335.9 610.7 L330.0 631.9 L325.4 653.0 L322.1 673.9 L320.4 694.7 L320.1 715.5 L321.3 736.2 L323.9 756.8 L328.0 777.3 L333.4 797.8 L340.1 818.2 L348.0 838.6 L356.9 858.9 L366.7 879.2"/>
<path d="M520.4 -9.4 L527.2 15.2 L532.7 39.6 L536.9 63.9 L539.6 88.1 L540.9 112.0 L540.7 135.8 L539.0 159.5 L535.9 183.0 L531.4 206.3 L525.5 229.5 L518.4 252.5 L510.2 275.3 L500.9 298.0 L490.8 320.5 L480.1 342.9 L468.7 365.1 L457.1 387.2 L445.2 409.1 L433.4 430.9 L421.7 452.6 L410.5 474.1 L399.8 495.5 L389.8 516.7 L380.7 537.9 L372.6 559.0 L365.6 579.9 L359.9 600.7 L355.6 621.5 L352.7 642.2 L351.2 662.8 L351.2 683.3 L352.7 703.8 L355.6 724.2 L360.0 744.6 L365.6 764.9 L372.6 785.2 L380.7 805.4 L389.8 825.7 L399.8 846.0 L410.5 866.2"/>
<path d="M559.4 -5.9 L564.7 18.0 L568.5 41.8 L571.0 65.5 L572.0 89.0 L571.5 112.3 L569.5 135.5 L566.1 158.5 L561.3 181.3 L555.2 204.0 L547.8 226.5 L539.4 248.9 L530.0 271.1 L519.7 293.2 L508.8 315.1 L497.4 336.9 L485.7 358.6 L473.8 380.1 L462.0 401.5 L450.4 422.7 L439.3 443.9 L428.7 465.0 L418.9 485.9 L410.0 506.7 L402.1 527.5 L395.4 548.2 L390.0 568.8 L385.9 589.3 L383.2 609.8 L382.1 630.2 L382.4 650.6 L384.1 670.9 L387.4 691.2 L392.0 711.4 L397.9 731.7 L405.1 752.0 L413.4 772.2 L422.7 792.5 L432.9 812.7 L443.7 833.1 L455.0 853.4"/>
<path d="M596.5 -5.0 L600.1 18.3 L602.3 41.5 L603.0 64.5 L602.2 87.3 L599.9 110.0 L596.3 132.5 L591.2 154.9 L584.8 177.1 L577.2 199.2 L568.6 221.1 L559.0 242.9 L548.6 264.6 L537.6 286.1 L526.1 307.5 L514.3 328.7 L502.5 349.9 L490.7 371.0 L479.2 391.9 L468.1 412.7 L457.7 433.5 L448.0 454.2 L439.3 474.8 L431.7 495.3 L425.2 515.8 L420.0 536.2 L416.3 556.6 L413.9 576.9 L413.0 597.2 L413.6 617.4 L415.7 637.7 L419.2 658.0 L424.1 678.2 L430.3 698.5 L437.7 718.7 L446.2 739.1 L455.7 759.4 L466.0 779.8 L476.9 800.2 L488.4 820.7 L500.1 841.2"/>
<path d="M631.7 -6.7 L633.6 16.0 L634.0 38.5 L632.9 60.9 L630.3 83.1 L626.3 105.2 L621.0 127.1 L614.4 148.9 L606.6 170.6 L597.7 192.1 L588.0 213.5 L577.4 234.7 L566.3 255.9 L554.8 277.0 L543.0 297.9 L531.1 318.7 L519.3 339.5 L507.9 360.2 L497.0 380.8 L486.7 401.3 L477.2 421.8 L468.7 442.2 L461.3 462.6 L455.1 482.9 L450.2 503.2 L446.7 523.4 L444.6 543.7 L444.0 564.0 L444.9 584.2 L447.3 604.5 L451.0 624.7 L456.2 645.1 L462.7 665.4 L470.3 685.8 L479.0 706.2 L488.7 726.7 L499.1 747.2 L510.2 767.9 L521.7 788.6 L533.5 809.3 L545.3 830.2"/>
<path d="M664.8 -10.9 L664.9 11.2 L663.5 33.1 L660.6 54.9 L656.4 76.6 L650.8 98.1 L643.9 119.5 L635.9 140.7 L626.9 161.9 L616.9 183.0 L606.3 203.9 L595.0 224.7 L583.4 245.5 L571.6 266.2 L559.7 286.8 L548.0 307.3 L536.7 327.8 L525.8 348.2 L515.7 368.6 L506.4 388.9 L498.1 409.2 L490.9 429.4 L485.0 449.7 L480.4 470.0 L477.1 490.2 L475.4 510.5 L475.1 530.7 L476.3 551.1 L478.9 571.4 L483.0 591.8 L488.4 612.2 L495.1 632.7 L503.0 653.2 L511.9 673.9 L521.7 694.6 L532.3 715.3 L543.5 736.2 L555.0 757.2 L566.8 778.3 L578.7 799.5 L590.4 820.8"/>
<path d="M695.7 -17.4 L694.0 4.1 L690.9 25.5 L686.4 46.7 L680.5 67.9 L673.4 89.0 L665.2 109.9 L655.9 130.7 L645.8 151.5 L635.1 172.2 L623.7 192.8 L612.1 213.3 L600.2 233.8 L588.4 254.2 L576.7 274.6 L565.5 294.9 L554.8 315.2 L544.8 335.4 L535.7 355.7 L527.6 376.0 L520.6 396.2 L514.9 416.5 L510.6 436.7 L507.7 457.1 L506.2 477.4 L506.2 497.8 L507.7 518.2 L510.6 538.7 L515.0 559.2 L520.6 579.9 L527.6 600.6 L535.7 621.3 L544.8 642.2 L554.8 663.2 L565.5 684.3 L576.7 705.5 L588.4 726.8 L600.2 748.2 L612.1 769.8 L623.7 791.5 L635.1 813.3"/>
<path d="M724.5 -26.1 L721.1 -5.0 L716.3 15.9 L710.2 36.7 L702.8 57.5 L694.4 78.2 L685.0 98.8 L674.7 119.3 L663.8 139.8 L652.4 160.2 L640.7 180.6 L628.8 200.9 L617.0 221.2 L605.4 241.4 L594.3 261.7 L583.7 282.0 L573.9 302.2 L565.0 322.5 L557.1 342.7 L550.4 363.1 L545.0 383.4 L540.9 403.8 L538.2 424.2 L537.1 444.7 L537.4 465.2 L539.1 485.9 L542.4 506.6 L547.0 527.3 L552.9 548.2 L560.1 569.2 L568.4 590.3 L577.7 611.5 L587.9 632.8 L598.7 654.2 L610.0 675.8 L621.7 697.5 L633.6 719.3 L645.4 741.3 L657.0 763.4 L668.3 785.7 L678.9 808.1"/>
<path d="M751.3 -36.5 L746.2 -15.8 L739.8 4.8 L732.2 25.3 L723.6 45.8 L714.0 66.2 L703.6 86.6 L692.6 106.9 L681.1 127.2 L669.3 147.4 L657.5 167.7 L645.7 188.0 L634.2 208.2 L623.1 228.5 L612.7 248.7 L603.0 269.1 L594.3 289.4 L586.7 309.8 L580.2 330.2 L575.0 350.7 L571.3 371.2 L568.9 391.9 L568.0 412.6 L568.6 433.3 L570.7 454.2 L574.2 475.2 L579.1 496.3 L585.3 517.5 L592.7 538.8 L601.2 560.2 L610.7 581.8 L621.0 603.5 L631.9 625.3 L643.4 647.3 L655.1 669.4 L667.0 691.7 L678.8 714.1 L690.3 736.7 L701.5 759.5 L712.0 782.4 L721.8 805.4"/>
<path d="M776.0 -48.2 L769.4 -27.8 L761.6 -7.4 L752.7 12.9 L743.0 33.2 L732.4 53.4 L721.3 73.7 L709.8 94.0 L698.0 114.2 L686.1 134.5 L674.3 154.7 L662.9 175.1 L652.0 195.4 L641.7 215.8 L632.2 236.2 L623.7 256.7 L616.3 277.2 L610.1 297.9 L605.2 318.6 L601.7 339.3 L599.6 360.2 L599.0 381.2 L599.9 402.3 L602.3 423.5 L606.0 444.8 L611.2 466.2 L617.7 487.8 L625.3 509.5 L634.0 531.3 L643.7 553.3 L654.1 575.4 L665.2 597.7 L676.7 620.1 L688.5 642.7 L700.3 665.5 L712.1 688.4 L723.6 711.4 L734.6 734.6 L745.0 758.0 L754.6 781.5 L763.3 805.2"/>
<path d="M798.9 -60.8 L790.9 -40.6 L781.9 -20.3 L771.9 -0.0 L761.3 20.2 L750.0 40.5 L738.4 60.7 L726.6 81.1 L714.7 101.4 L703.0 121.8 L691.7 142.2 L680.8 162.7 L670.7 183.2 L661.4 203.9 L653.1 224.6 L645.9 245.3 L640.0 266.2 L635.4 287.2 L632.1 308.3 L630.4 329.5 L630.1 350.8 L631.3 372.2 L633.9 393.8 L638.0 415.5 L643.4 437.3 L650.1 459.3 L658.0 481.4 L666.9 503.7 L676.7 526.1 L687.3 548.7 L698.5 571.5 L710.0 594.4 L721.8 617.4 L733.7 640.6 L745.4 664.0 L756.8 687.5 L767.8 711.2 L778.0 735.1 L787.4 759.1 L795.9 783.3 L803.2 807.7"/>
<path d="M820.2 -73.8 L810.9 -53.5 L800.8 -33.3 L790.1 -12.9 L778.7 7.4 L767.1 27.8 L755.2 48.2 L743.4 68.7 L731.7 89.2 L720.5 109.9 L709.8 130.6 L699.8 151.3 L690.7 172.2 L682.6 193.2 L675.6 214.3 L669.9 235.5 L665.6 256.8 L662.7 278.2 L661.2 299.8 L661.2 321.5 L662.7 343.3 L665.6 365.3 L670.0 387.4 L675.6 409.7 L682.6 432.1 L690.7 454.7 L699.8 477.5 L709.8 500.4 L720.5 523.4 L731.7 546.6 L743.4 570.0 L755.2 593.5 L767.1 617.2 L778.7 641.1 L790.1 665.1 L800.9 689.3 L811.0 713.7 L820.2 738.2 L828.4 762.8 L835.5 787.6 L841.4 812.6"/>
<path d="M840.0 -86.6 L829.7 -66.2 L818.8 -45.8 L807.4 -25.3 L795.7 -4.8 L783.8 15.9 L772.0 36.6 L760.4 57.3 L749.3 78.2 L738.7 99.2 L728.9 120.3 L720.0 141.5 L712.1 162.8 L705.4 184.2 L700.0 205.8 L695.9 227.5 L693.2 249.3 L692.1 271.3 L692.4 293.4 L694.1 315.7 L697.4 338.1 L702.0 360.7 L707.9 383.5 L715.1 406.4 L723.4 429.4 L732.7 452.6 L742.9 476.0 L753.7 499.5 L765.0 523.2 L776.7 547.1 L788.6 571.1 L800.4 595.3 L812.0 619.7 L823.3 644.2 L833.9 668.8 L843.9 693.6 L852.9 718.6 L860.9 743.7 L867.8 768.9 L873.4 794.3 L877.6 819.8"/>
<path d="M858.6 -98.8 L847.6 -78.1 L836.1 -57.4 L824.3 -36.7 L812.5 -15.8 L800.7 5.2 L789.2 26.3 L778.1 47.5 L767.7 68.8 L758.0 90.2 L749.3 111.8 L741.7 133.5 L735.2 155.3 L730.0 177.3 L726.3 199.4 L723.9 221.7 L723.0 244.1 L723.6 266.7 L725.7 289.5 L729.2 312.4 L734.1 335.4 L740.3 358.6 L747.7 382.0 L756.2 405.5 L765.7 429.2 L776.0 453.1 L786.9 477.1 L798.4 501.3 L810.1 525.7 L822.0 550.2 L833.8 574.8 L845.3 599.6 L856.5 624.6 L867.0 649.7 L876.8 674.9 L885.6 700.3 L893.4 725.8 L900.0 751.4 L905.4 777.1 L909.3 803.0 L911.9 829.0"/>
<path d="M876.3 -109.8 L864.8 -88.8 L853.0 -67.7 L841.1 -46.5 L829.3 -25.2 L817.9 -3.8 L807.0 17.8 L796.7 39.5 L787.2 61.3 L778.7 83.3 L771.3 105.4 L765.1 127.7 L760.2 150.1 L756.7 172.7 L754.6 195.5 L754.0 218.4 L754.9 241.4 L757.3 264.6 L761.0 288.0 L766.2 311.5 L772.7 335.2 L780.3 359.1 L789.0 383.1 L798.7 407.3 L809.1 431.7 L820.2 456.2 L831.7 480.8 L843.5 505.6 L855.3 530.6 L867.1 555.7 L878.6 580.9 L889.6 606.3 L900.0 631.8 L909.6 657.4 L918.3 683.1 L925.8 709.0 L932.2 735.0 L937.3 761.0 L941.0 787.2 L943.2 813.5 L944.0 839.8"/>
<path d="M893.4 -119.2 L881.6 -97.8 L869.7 -76.2 L858.0 -54.5 L846.7 -32.7 L835.8 -10.7 L825.7 11.4 L816.4 33.7 L808.1 56.1 L800.9 78.7 L795.0 101.5 L790.4 124.4 L787.1 147.4 L785.4 170.6 L785.1 194.0 L786.3 217.5 L788.9 241.2 L793.0 265.1 L798.4 289.1 L805.1 313.3 L813.0 337.7 L821.9 362.2 L831.7 386.8 L842.3 411.6 L853.5 436.6 L865.0 461.7 L876.8 486.9 L888.7 512.3 L900.4 537.8 L911.8 563.4 L922.8 589.1 L933.0 615.0 L942.4 641.0 L950.9 667.0 L958.2 693.2 L964.3 719.5 L969.1 745.8 L972.5 772.2 L974.5 798.7 L975.0 825.2 L974.0 851.8"/>
<path d="M260.0 -70.0 L282.6 -63.5 L305.2 -57.1 L327.7 -50.8 L350.1 -44.7 L372.3 -38.8 L394.3 -33.3 L416.1 -28.1 L437.6 -23.4 L458.9 -19.1 L479.8 -15.3 L500.3 -12.1 L520.4 -9.4 L540.1 -7.4 L559.4 -5.9 L578.2 -5.2 L596.5 -5.0 L614.4 -5.5 L631.7 -6.7 L648.5 -8.5 L664.8 -10.9 L680.5 -13.9 L695.7 -17.4 L710.4 -21.5 L724.5 -26.1 L738.1 -31.1 L751.3 -36.5 L763.9 -42.2 L776.0 -48.2 L787.7 -54.4 L798.9 -60.8 L809.7 -67.3 L820.2 -73.8 L830.2 -80.3 L840.0 -86.6 L849.4 -92.8 L858.6 -98.8 L867.6 -104.4 L876.3 -109.8 L884.9 -114.7 L893.4 -119.2"/>
<path d="M276.9 -31.8 L299.3 -25.3 L321.7 -19.0 L343.8 -12.8 L365.7 -6.9 L387.4 -1.3 L408.9 4.0 L430.0 8.9 L450.7 13.3 L471.1 17.2 L491.1 20.6 L510.6 23.5 L529.7 25.7 L548.4 27.3 L566.5 28.3 L584.1 28.6 L601.3 28.2 L617.8 27.3 L633.9 25.7 L649.4 23.4 L664.4 20.6 L678.9 17.2 L692.9 13.3 L706.3 8.8 L719.2 3.9 L731.6 -1.3 L743.6 -7.0 L755.1 -12.9 L766.2 -19.1 L776.9 -25.4 L787.1 -31.9 L797.1 -38.4 L806.7 -44.8 L816.0 -51.2 L825.1 -57.5 L834.0 -63.5 L842.7 -69.3 L851.3 -74.7 L859.7 -79.8 L868.1 -84.4 L876.5 -88.5"/>
<path d="M293.2 6.4 L315.3 12.8 L337.1 19.0 L358.7 25.0 L380.0 30.7 L401.0 36.1 L421.6 41.1 L441.8 45.7 L461.7 49.7 L481.0 53.3 L500.0 56.3 L518.4 58.7 L536.4 60.5 L553.8 61.6 L570.7 62.1 L587.1 62.0 L603.0 61.2 L618.3 59.8 L633.1 57.7 L647.4 55.0 L661.1 51.8 L674.4 48.0 L687.1 43.7 L699.3 39.0 L711.1 33.8 L722.5 28.2 L733.4 22.4 L743.9 16.3 L754.1 10.0 L763.9 3.6 L773.4 -2.9 L782.6 -9.4 L791.6 -15.9 L800.4 -22.1 L809.1 -28.2 L817.6 -34.1 L826.0 -39.6 L834.4 -44.8 L842.8 -49.5 L851.2 -53.8 L859.7 -57.6"/>
<path d="M308.5 44.5 L330.0 50.8 L351.2 56.9 L372.0 62.7 L392.5 68.2 L412.5 73.3 L432.2 78.0 L451.4 82.2 L470.1 85.9 L488.4 89.1 L506.2 91.6 L523.4 93.6 L540.1 94.9 L556.3 95.6 L572.0 95.7 L587.1 95.0 L601.7 93.8 L615.8 91.9 L629.3 89.4 L642.4 86.3 L654.9 82.7 L667.0 78.6 L678.6 73.9 L689.8 68.9 L700.5 63.4 L710.9 57.7 L720.9 51.6 L730.6 45.4 L740.0 39.0 L749.2 32.5 L758.1 26.0 L766.8 19.5 L775.4 13.2 L783.9 7.0 L792.3 1.1 L800.7 -4.5 L809.1 -9.8 L817.5 -14.7 L826.0 -19.1 L834.7 -23.0 L843.5 -26.4"/>
<path d="M322.2 82.6 L342.9 88.7 L363.3 94.6 L383.2 100.2 L402.7 105.4 L421.7 110.3 L440.3 114.6 L458.3 118.5 L475.9 121.8 L492.9 124.5 L509.5 126.7 L525.5 128.2 L540.9 129.1 L555.8 129.3 L570.2 128.9 L584.1 127.8 L597.5 126.1 L610.3 123.8 L622.7 120.9 L634.6 117.4 L646.0 113.4 L657.0 108.9 L667.6 103.9 L677.9 98.6 L687.8 92.9 L697.3 86.9 L706.6 80.7 L715.7 74.4 L724.5 67.9 L733.2 61.4 L741.8 55.0 L750.2 48.6 L758.6 42.4 L767.0 36.4 L775.4 30.6 L783.8 25.3 L792.4 20.3 L801.1 15.7 L810.0 11.6 L819.1 8.1 L828.5 5.1"/>
<path d="M334.0 120.6 L353.7 126.5 L373.1 132.2 L391.9 137.6 L410.3 142.5 L428.2 147.0 L445.5 151.0 L462.4 154.5 L478.7 157.4 L494.5 159.7 L509.8 161.4 L524.5 162.4 L538.7 162.9 L552.3 162.6 L565.5 161.7 L578.2 160.2 L590.3 158.1 L602.1 155.3 L613.3 152.0 L624.2 148.1 L634.7 143.8 L644.8 139.0 L654.5 133.7 L664.0 128.1 L673.2 122.2 L682.2 116.1 L691.0 109.8 L699.6 103.3 L708.1 96.8 L716.5 90.4 L724.9 84.0 L733.3 77.7 L741.7 71.6 L750.2 65.8 L758.8 60.3 L767.6 55.2 L776.6 50.5 L785.8 46.3 L795.3 42.6 L805.0 39.5 L815.2 36.9"/>
<path d="M343.4 158.4 L362.1 164.2 L380.3 169.6 L397.9 174.7 L415.1 179.3 L431.8 183.5 L447.9 187.1 L463.5 190.2 L478.5 192.7 L493.0 194.5 L507.0 195.8 L520.5 196.4 L533.5 196.3 L546.0 195.6 L558.0 194.3 L569.5 192.3 L580.6 189.7 L591.3 186.6 L601.7 182.9 L611.6 178.6 L621.3 173.9 L630.6 168.8 L639.8 163.3 L648.6 157.5 L657.4 151.4 L665.9 145.2 L674.4 138.8 L682.8 132.3 L691.2 125.8 L699.6 119.3 L708.0 113.0 L716.6 106.9 L725.2 101.0 L734.1 95.4 L743.1 90.2 L752.5 85.4 L762.0 81.0 L771.9 77.2 L782.2 73.9 L792.8 71.2 L803.9 69.0"/>
<path d="M350.2 196.2 L367.6 201.7 L384.6 206.9 L401.1 211.6 L417.0 215.9 L432.4 219.7 L447.2 222.9 L461.5 225.6 L475.3 227.6 L488.6 229.1 L501.4 229.8 L513.7 230.0 L525.5 229.5 L536.9 228.3 L547.8 226.5 L558.4 224.1 L568.6 221.1 L578.4 217.6 L588.0 213.5 L597.2 208.9 L606.3 203.9 L615.1 198.5 L623.7 192.8 L632.3 186.8 L640.7 180.6 L649.1 174.2 L657.5 167.7 L665.9 161.2 L674.3 154.7 L682.9 148.4 L691.7 142.2 L700.6 136.2 L709.8 130.6 L719.2 125.2 L728.9 120.3 L738.9 115.8 L749.3 111.8 L760.1 108.3 L771.3 105.4 L782.9 103.1 L795.0 101.5"/>
<path d="M354.0 233.7 L370.3 239.0 L386.0 243.9 L401.2 248.3 L415.8 252.2 L429.9 255.6 L443.5 258.5 L456.6 260.7 L469.2 262.3 L481.3 263.3 L493.0 263.6 L504.2 263.2 L515.0 262.3 L525.4 260.7 L535.5 258.4 L545.2 255.6 L554.6 252.2 L563.8 248.3 L572.7 243.8 L581.5 238.9 L590.1 233.7 L598.6 228.0 L607.0 222.1 L615.4 215.9 L623.7 209.6 L632.2 203.1 L640.7 196.6 L649.3 190.2 L658.1 183.8 L667.2 177.5 L676.4 171.5 L685.9 165.7 L695.8 160.3 L705.9 155.2 L716.5 150.6 L727.4 146.5 L738.7 142.9 L750.5 139.8 L762.8 137.3 L775.6 135.4 L788.8 134.2"/>
<path d="M354.9 271.1 L369.9 276.1 L384.4 280.7 L398.3 284.7 L411.7 288.3 L424.6 291.3 L437.0 293.7 L448.9 295.5 L460.4 296.6 L471.5 297.1 L482.1 297.0 L492.4 296.2 L502.3 294.8 L511.9 292.7 L521.2 290.0 L530.3 286.8 L539.2 283.0 L547.9 278.7 L556.4 274.0 L564.9 268.8 L573.3 263.2 L581.6 257.4 L590.0 251.3 L598.5 245.0 L607.1 238.6 L615.8 232.1 L624.6 225.6 L633.7 219.1 L643.1 212.9 L652.7 206.8 L662.7 200.9 L673.0 195.4 L683.7 190.2 L694.8 185.5 L706.3 181.2 L718.2 177.4 L730.7 174.2 L743.6 171.5 L757.1 169.5 L771.0 168.1 L785.5 167.3"/>
<path d="M352.8 308.3 L366.5 313.0 L379.7 317.2 L392.5 320.9 L404.7 324.1 L416.4 326.6 L427.8 328.6 L438.7 329.9 L449.2 330.6 L459.3 330.7 L469.1 330.0 L478.6 328.8 L487.8 326.9 L496.8 324.4 L505.6 321.3 L514.2 317.7 L522.7 313.6 L531.2 308.9 L539.6 303.9 L547.9 298.4 L556.4 292.7 L564.8 286.6 L573.5 280.4 L582.2 274.0 L591.2 267.5 L600.4 261.0 L609.8 254.5 L619.6 248.2 L629.7 242.0 L640.1 236.1 L650.9 230.5 L662.2 225.2 L673.9 220.3 L686.0 215.9 L698.7 212.0 L711.8 208.6 L725.4 205.8 L739.6 203.6 L754.3 202.0 L769.5 201.0 L785.3 200.7"/>
<path d="M347.7 345.3 L360.3 349.6 L372.3 353.5 L383.9 356.8 L395.1 359.5 L405.8 361.7 L416.2 363.2 L426.2 364.1 L435.8 364.3 L445.2 363.9 L454.4 362.8 L463.3 361.1 L472.0 358.8 L480.6 355.9 L489.1 352.4 L497.5 348.4 L505.8 343.9 L514.2 338.9 L522.7 333.6 L531.2 327.9 L539.9 321.9 L548.7 315.7 L557.7 309.4 L567.0 302.9 L576.6 296.4 L586.5 290.0 L596.7 283.6 L607.3 277.4 L618.3 271.4 L629.7 265.6 L641.5 260.3 L653.9 255.3 L666.7 250.7 L680.0 246.6 L693.9 243.1 L708.2 240.1 L723.1 237.7 L738.5 235.9 L754.5 234.8 L771.0 234.3 L788.0 234.5"/>
<path d="M339.9 382.0 L351.3 386.0 L362.3 389.5 L372.9 392.4 L383.1 394.7 L393.0 396.4 L402.6 397.4 L411.8 397.9 L420.9 397.6 L429.7 396.7 L438.4 395.2 L446.9 393.1 L455.4 390.3 L463.8 387.0 L472.1 383.1 L480.5 378.8 L489.0 374.0 L497.6 368.7 L506.3 363.1 L515.2 357.2 L524.3 351.1 L533.7 344.8 L543.4 338.3 L553.4 331.8 L563.8 325.4 L574.5 319.0 L585.7 312.7 L597.2 306.6 L609.3 300.8 L621.8 295.3 L634.8 290.2 L648.3 285.5 L662.4 281.3 L676.9 277.6 L692.0 274.5 L707.6 271.9 L723.8 270.0 L740.5 268.6 L757.7 268.0 L775.4 267.9 L793.7 268.5"/>
<path d="M329.5 418.5 L339.9 422.1 L350.0 425.2 L359.8 427.7 L369.2 429.5 L378.4 430.8 L387.4 431.4 L396.1 431.3 L404.7 430.6 L413.2 429.3 L421.7 427.3 L430.0 424.7 L438.4 421.6 L446.8 417.9 L455.4 413.6 L464.0 408.9 L472.8 403.8 L481.8 398.3 L491.0 392.5 L500.5 386.4 L510.3 380.2 L520.4 373.8 L530.9 367.3 L541.8 360.8 L553.1 354.3 L564.9 348.0 L577.1 341.9 L589.8 336.0 L603.0 330.4 L616.7 325.2 L630.9 320.4 L645.7 316.0 L661.0 312.2 L676.8 308.9 L693.2 306.2 L710.1 304.0 L727.5 302.5 L745.4 301.7 L763.8 301.4 L782.7 301.9 L802.1 302.9"/>
<path d="M316.9 454.7 L326.5 457.9 L335.8 460.6 L344.9 462.6 L353.8 464.1 L362.5 464.8 L371.1 465.0 L379.6 464.5 L388.0 463.3 L396.3 461.5 L404.7 459.1 L413.2 456.1 L421.7 452.6 L430.4 448.5 L439.3 443.9 L448.3 438.9 L457.7 433.5 L467.3 427.8 L477.2 421.8 L487.5 415.6 L498.1 409.2 L509.2 402.7 L520.6 396.2 L532.6 389.7 L545.0 383.4 L557.9 377.2 L571.3 371.2 L585.2 365.6 L599.6 360.2 L614.6 355.3 L630.1 350.8 L646.1 346.8 L662.7 343.3 L679.8 340.4 L697.4 338.1 L715.5 336.5 L734.1 335.4 L753.1 335.0 L772.7 335.2 L792.6 336.1 L813.0 337.7"/>
<path d="M302.4 490.6 L311.4 493.5 L320.3 495.7 L328.9 497.3 L337.4 498.3 L345.9 498.6 L354.2 498.2 L362.6 497.3 L371.0 495.7 L379.5 493.4 L388.1 490.6 L396.9 487.2 L405.8 483.3 L415.0 478.8 L424.4 473.9 L434.1 468.7 L444.2 463.0 L454.6 457.1 L465.4 450.9 L476.6 444.6 L488.2 438.1 L500.3 431.6 L512.9 425.2 L526.0 418.8 L539.6 412.5 L553.7 406.5 L568.3 400.7 L583.5 395.3 L599.2 390.2 L615.4 385.6 L632.2 381.5 L649.5 377.9 L667.3 374.8 L685.6 372.3 L704.4 370.4 L723.6 369.2 L743.3 368.6 L763.4 368.7 L783.9 369.4 L804.8 370.7 L826.0 372.7"/>
<path d="M286.7 526.3 L295.3 528.7 L303.7 530.5 L312.1 531.6 L320.5 532.1 L328.9 532.0 L337.3 531.2 L345.9 529.8 L354.5 527.7 L363.3 525.0 L372.4 521.8 L381.6 518.0 L391.1 513.7 L401.0 509.0 L411.2 503.8 L421.7 498.2 L432.7 492.4 L444.0 486.3 L455.9 480.0 L468.2 473.6 L480.9 467.1 L494.2 460.6 L508.0 454.1 L522.3 447.9 L537.1 441.8 L552.5 435.9 L568.4 430.4 L584.9 425.2 L601.8 420.5 L619.3 416.2 L637.3 412.4 L655.8 409.2 L674.8 406.5 L694.2 404.5 L714.0 403.1 L734.3 402.3 L754.9 402.2 L775.9 402.7 L797.3 403.9 L818.9 405.7 L840.7 408.1"/>
<path d="M270.0 561.6 L278.4 563.6 L286.8 564.9 L295.2 565.6 L303.7 565.7 L312.2 565.0 L320.9 563.8 L329.8 561.9 L338.9 559.4 L348.3 556.3 L358.0 552.7 L367.9 548.6 L378.2 543.9 L388.9 538.9 L400.1 533.4 L411.6 527.7 L423.6 521.6 L436.1 515.4 L449.0 509.0 L462.5 502.5 L476.5 496.0 L491.0 489.5 L506.0 483.2 L521.6 477.0 L537.7 471.1 L554.4 465.5 L571.5 460.2 L589.2 455.3 L607.4 450.9 L626.1 447.0 L645.2 443.6 L664.8 440.8 L684.8 438.6 L705.2 437.0 L726.0 436.0 L747.1 435.7 L768.5 436.1 L790.3 437.0 L812.2 438.7 L834.4 440.9 L856.7 443.7"/>
<path d="M253.1 596.7 L261.5 598.2 L270.0 599.1 L278.6 599.3 L287.4 598.9 L296.4 597.8 L305.6 596.1 L315.0 593.8 L324.8 590.9 L334.9 587.4 L345.4 583.4 L356.2 578.9 L367.5 573.9 L379.2 568.6 L391.4 562.9 L404.0 556.9 L417.2 550.7 L430.9 544.4 L445.0 537.9 L459.8 531.4 L475.0 525.0 L490.8 518.6 L507.1 512.4 L523.9 506.4 L541.3 500.6 L559.2 495.3 L577.5 490.3 L596.4 485.7 L615.7 481.6 L635.4 478.1 L655.6 475.1 L676.2 472.7 L697.1 470.9 L718.3 469.8 L739.9 469.3 L761.7 469.5 L783.7 470.3 L806.0 471.7 L828.4 473.8 L850.9 476.4 L873.5 479.7"/>
<path d="M236.4 631.4 L245.1 632.4 L253.9 632.9 L262.9 632.6 L272.2 631.7 L281.8 630.2 L291.7 628.1 L301.9 625.3 L312.5 622.0 L323.6 618.1 L335.0 613.8 L346.9 609.0 L359.2 603.7 L372.1 598.1 L385.4 592.2 L399.3 586.1 L413.7 579.8 L428.6 573.3 L444.0 566.8 L460.0 560.4 L476.5 554.0 L493.6 547.7 L511.1 541.6 L529.2 535.8 L547.8 530.3 L566.8 525.2 L586.3 520.5 L606.2 516.3 L626.5 512.6 L647.2 509.5 L668.2 506.9 L689.6 505.0 L711.3 503.6 L733.2 503.0 L755.3 502.9 L777.6 503.5 L800.0 504.8 L822.6 506.7 L845.2 509.2 L867.8 512.3 L890.4 515.9"/>
<path d="M220.4 665.8 L229.6 666.4 L239.0 666.3 L248.6 665.6 L258.7 664.3 L269.0 662.3 L279.8 659.7 L291.0 656.6 L302.6 652.9 L314.6 648.6 L327.2 643.9 L340.2 638.8 L353.7 633.3 L367.8 627.5 L382.4 621.4 L397.5 615.2 L413.2 608.8 L429.4 602.3 L446.1 595.8 L463.3 589.3 L481.1 583.0 L499.3 576.9 L518.0 571.0 L537.2 565.4 L556.9 560.2 L577.0 555.4 L597.4 551.0 L618.3 547.2 L639.4 543.9 L660.9 541.2 L682.7 539.0 L704.7 537.5 L726.9 536.7 L749.2 536.4 L771.7 536.9 L794.3 537.9 L816.9 539.7 L839.5 542.0 L862.1 544.9 L884.6 548.4 L907.0 552.4"/>
<path d="M205.7 699.8 L215.5 700.0 L225.7 699.5 L236.2 698.3 L247.1 696.5 L258.4 694.1 L270.2 691.1 L282.4 687.6 L295.2 683.5 L308.4 678.9 L322.1 673.9 L336.4 668.5 L351.2 662.8 L366.5 656.8 L382.4 650.6 L398.8 644.2 L415.7 637.7 L433.1 631.2 L451.0 624.7 L469.5 618.4 L488.4 612.2 L507.8 606.2 L527.6 600.6 L547.8 595.2 L568.4 590.3 L589.4 585.8 L610.7 581.8 L632.3 578.3 L654.1 575.4 L676.2 573.1 L698.5 571.5 L720.9 570.4 L743.4 570.0 L766.0 570.2 L788.6 571.1 L811.2 572.7 L833.8 574.8 L856.2 577.6 L878.6 580.9 L900.8 584.8 L922.8 589.1"/>
<path d="M192.7 733.6 L203.4 733.2 L214.5 732.3 L226.0 730.7 L237.9 728.4 L250.3 725.6 L263.2 722.2 L276.7 718.3 L290.6 713.8 L305.1 708.9 L320.1 703.7 L335.6 698.0 L351.6 692.1 L368.2 685.9 L385.3 679.6 L403.0 673.1 L421.1 666.6 L439.7 660.2 L458.8 653.8 L478.4 647.5 L498.3 641.5 L518.7 635.7 L539.5 630.3 L560.6 625.2 L582.0 620.6 L603.7 616.5 L625.6 612.9 L647.8 609.8 L670.1 607.3 L692.5 605.4 L715.1 604.2 L737.7 603.6 L760.3 603.7 L782.9 604.4 L805.4 605.7 L827.9 607.7 L850.2 610.3 L872.3 613.5 L894.2 617.2 L915.8 621.4 L937.1 626.1"/>
<path d="M181.9 767.0 L193.5 766.2 L205.7 764.8 L218.3 762.7 L231.4 760.0 L245.0 756.8 L259.1 753.0 L273.8 748.7 L289.0 744.0 L304.7 738.8 L321.0 733.2 L337.8 727.4 L355.1 721.3 L372.9 715.0 L391.2 708.6 L410.0 702.1 L429.3 695.6 L449.0 689.1 L469.2 682.9 L489.7 676.8 L510.6 670.9 L531.8 665.4 L553.3 660.2 L575.1 655.5 L597.1 651.2 L619.3 647.4 L641.7 644.2 L664.2 641.5 L686.8 639.5 L709.4 638.1 L732.0 637.3 L754.6 637.2 L777.1 637.7 L799.5 638.9 L821.7 640.7 L843.7 643.1 L865.5 646.1 L887.1 649.6 L908.3 653.7 L929.2 658.3 L949.7 663.3"/>
<path d="M173.5 800.0 L186.3 798.8 L199.6 796.9 L213.4 794.4 L227.8 791.3 L242.6 787.7 L258.0 783.6 L274.0 778.9 L290.4 773.9 L307.4 768.4 L324.9 762.7 L342.9 756.6 L361.4 750.4 L380.4 744.0 L399.9 737.5 L419.7 731.0 L440.0 724.5 L460.7 718.2 L481.7 712.0 L503.0 706.1 L524.7 700.5 L546.5 695.2 L568.7 690.3 L590.9 685.9 L613.4 682.0 L635.9 678.6 L658.5 675.8 L681.1 673.6 L703.7 672.0 L726.3 671.0 L748.7 670.7 L771.1 671.1 L793.2 672.0 L815.2 673.7 L836.9 675.9 L858.3 678.7 L879.4 682.1 L900.1 686.1 L920.5 690.5 L940.5 695.4 L960.1 700.7"/>
<path d="M167.9 832.8 L181.9 831.1 L196.5 828.8 L211.5 825.9 L227.1 822.4 L243.3 818.4 L259.9 813.9 L277.1 808.9 L294.8 803.6 L313.0 797.9 L331.7 791.9 L350.9 785.7 L370.5 779.4 L390.5 772.9 L410.9 766.4 L431.7 760.0 L452.9 753.6 L474.3 747.4 L496.1 741.4 L518.0 735.6 L540.2 730.3 L562.6 725.3 L585.0 720.7 L607.6 716.6 L630.2 713.1 L652.8 710.1 L675.4 707.7 L697.9 705.9 L720.4 704.8 L742.6 704.3 L764.7 704.5 L786.6 705.3 L808.1 706.7 L829.5 708.8 L850.4 711.4 L871.1 714.7 L891.3 718.5 L911.1 722.8 L930.5 727.5 L949.4 732.7 L967.9 738.3"/>
<path d="M165.2 865.2 L180.5 863.1 L196.3 860.3 L212.6 857.0 L229.5 853.1 L246.9 848.8 L264.8 844.0 L283.2 838.7 L302.1 833.1 L321.4 827.2 L341.2 821.1 L361.3 814.8 L381.9 808.3 L402.9 801.8 L424.1 795.4 L445.7 789.0 L467.5 782.7 L489.6 776.6 L511.8 770.8 L534.2 765.3 L556.7 760.2 L579.3 755.5 L601.9 751.3 L624.5 747.6 L647.1 744.5 L669.6 741.9 L692.0 740.0 L714.1 738.6 L736.1 738.0 L757.9 737.9 L779.4 738.5 L800.6 739.8 L821.4 741.7 L841.9 744.2 L862.0 747.3 L881.6 750.9 L900.9 755.1 L919.6 759.7 L937.9 764.8 L955.6 770.2 L972.9 776.0"/>
<path d="M165.6 897.3 L182.1 894.7 L199.2 891.6 L216.8 887.9 L234.8 883.6 L253.4 878.9 L272.5 873.8 L292.0 868.3 L311.9 862.5 L332.2 856.4 L352.9 850.2 L374.0 843.8 L395.4 837.3 L417.1 830.8 L439.0 824.3 L461.1 818.0 L483.4 811.9 L505.9 806.0 L528.4 800.4 L551.0 795.2 L573.6 790.4 L596.2 786.0 L618.8 782.2 L641.2 778.9 L663.5 776.2 L685.7 774.0 L707.6 772.5 L729.2 771.7 L750.6 771.4 L771.7 771.9 L792.4 772.9 L812.7 774.7 L832.6 777.0 L852.1 779.9 L871.2 783.4 L889.7 787.4 L907.8 791.9 L925.4 796.9 L942.4 802.2 L959.0 807.9 L974.9 813.9"/>
<path d="M168.9 929.1 L186.7 926.1 L205.0 922.6 L223.7 918.5 L242.9 913.9 L262.6 908.9 L282.7 903.5 L303.2 897.8 L324.0 891.8 L345.2 885.6 L366.7 879.2 L388.5 872.7 L410.5 866.2 L432.7 859.7 L455.0 853.4 L477.5 847.2 L500.1 841.2 L522.7 835.6 L545.3 830.2 L567.9 825.3 L590.4 820.8 L612.8 816.8 L635.1 813.3 L657.1 810.4 L678.9 808.1 L700.5 806.5 L721.8 805.4 L742.7 805.0 L763.3 805.2 L783.4 806.1 L803.2 807.7 L822.5 809.8 L841.4 812.6 L859.8 815.9 L877.6 819.8 L895.0 824.1 L911.9 829.0 L928.2 834.2 L944.0 839.8 L959.3 845.7 L974.0 851.8"/></g>
<g fill="#2f80ed" fill-opacity=".35"><circle cx="260.0" cy="-70.0" r="2.2"/><circle cx="343.4" cy="158.4" r="1.5"/><circle cx="339.9" cy="382.0" r="2.2"/><circle cx="253.1" cy="596.7" r="1.5"/><circle cx="173.5" cy="800.0" r="2.2"/><circle cx="402.7" cy="105.4" r="1.5"/><circle cx="404.7" cy="324.1" r="2.2"/><circle cx="320.5" cy="532.1" r="1.5"/><circle cx="237.9" cy="728.4" r="2.2"/><circle cx="242.9" cy="913.9" r="1.5"/><circle cx="461.7" cy="49.7" r="1.5"/><circle cx="469.2" cy="262.3" r="2.2"/><circle cx="388.0" cy="463.3" r="1.5"/><circle cx="302.6" cy="652.9" r="2.2"/><circle cx="302.1" cy="833.1" r="1.5"/><circle cx="520.4" cy="-9.4" r="1.5"/><circle cx="533.5" cy="196.3" r="2.2"/><circle cx="455.4" cy="390.3" r="1.5"/><circle cx="367.5" cy="573.9" r="2.2"/><circle cx="361.4" cy="750.4" r="1.5"/><circle cx="597.5" cy="126.1" r="2.2"/><circle cx="522.7" cy="313.6" r="1.5"/><circle cx="432.7" cy="492.4" r="2.2"/><circle cx="421.1" cy="666.6" r="1.5"/><circle cx="500.1" cy="841.2" r="2.2"/><circle cx="661.1" cy="51.8" r="2.2"/><circle cx="590.1" cy="233.7" r="1.5"/><circle cx="498.1" cy="409.2" r="2.2"/><circle cx="481.1" cy="583.0" r="1.5"/><circle cx="556.7" cy="760.2" r="2.2"/><circle cx="724.5" cy="-26.1" r="2.2"/><circle cx="657.4" cy="151.4" r="1.5"/><circle cx="563.8" cy="325.4" r="2.2"/><circle cx="541.3" cy="500.6" r="1.5"/><circle cx="613.4" cy="682.0" r="2.2"/><circle cx="724.5" cy="67.9" r="1.5"/><circle cx="629.7" cy="242.0" r="2.2"/><circle cx="601.8" cy="420.5" r="1.5"/><circle cx="670.1" cy="607.3" r="2.2"/><circle cx="763.3" cy="805.2" r="1.5"/><circle cx="791.6" cy="-15.9" r="1.5"/><circle cx="695.8" cy="160.3" r="2.2"/><circle cx="662.7" cy="343.3" r="1.5"/><circle cx="726.9" cy="536.7" r="2.2"/><circle cx="821.4" cy="741.7" r="1.5"/><circle cx="858.6" cy="-98.8" r="1.5"/><circle cx="762.0" cy="81.0" r="2.2"/><circle cx="723.8" cy="270.0" r="1.5"/><circle cx="783.7" cy="470.3" r="2.2"/><circle cx="879.4" cy="682.1" r="1.5"/><circle cx="828.5" cy="5.1" r="2.2"/><circle cx="785.3" cy="200.7" r="1.5"/><circle cx="840.7" cy="408.1" r="2.2"/><circle cx="937.1" cy="626.1" r="1.5"/><circle cx="974.0" cy="851.8" r="2.2"/></g>
</svg>
